<svg xmlns="http://www.w3.org/2000/svg" width="480.004" height="288.013" viewBox="0 0 480.004 288.013">
  <g id="cargo-ship" transform="translate(0)">
    <path id="Path_4" data-name="Path 4" d="M472,272a44.553,44.553,0,0,1-25.16-7.008,64.6,64.6,0,0,0-65.75,0,48.618,48.618,0,0,1-50.281,0,64.572,64.572,0,0,0-65.746,0,48.582,48.582,0,0,1-50.262,0A59.956,59.956,0,0,0,181.93,256a59.957,59.957,0,0,0-32.852,8.992A44.37,44.37,0,0,1,123.953,272a44.443,44.443,0,0,1-25.121-7,59.911,59.911,0,0,0-32.855-9,59.935,59.935,0,0,0-32.848,8.992A44.374,44.374,0,0,1,8,272a8,8,0,0,0,0,16,59.828,59.828,0,0,0,32.855-9,44.5,44.5,0,0,1,25.121-7,44.425,44.425,0,0,1,25.129,7.012A59.9,59.9,0,0,0,123.953,288a59.91,59.91,0,0,0,32.848-9,44.428,44.428,0,0,1,25.129-7,44.491,44.491,0,0,1,25.133,7.012,64.575,64.575,0,0,0,65.738,0,48.579,48.579,0,0,1,50.27,0,64.575,64.575,0,0,0,65.738,0,48.67,48.67,0,0,1,50.32,0A59.977,59.977,0,0,0,472,288a8,8,0,0,0,0-16Zm0,0" fill="#ef4937"/>
    <path id="Path_5" data-name="Path 5" d="M0,248a8,8,0,0,0,8,8,59.465,59.465,0,0,0,32.8-8.988A44.783,44.783,0,0,1,66,240a44.781,44.781,0,0,1,25.23,7.082A59.788,59.788,0,0,0,123.922,256a60.2,60.2,0,0,0,32.926-9.008A44.017,44.017,0,0,1,181.922,240a44.878,44.878,0,0,1,25.309,7.082,64.525,64.525,0,0,0,65.6-.09A44.006,44.006,0,0,1,297.922,240a44.878,44.878,0,0,1,25.309,7.082,64.516,64.516,0,0,0,65.6-.07A44.815,44.815,0,0,1,414,240c1.734,0,3.336.066,4.953.219a44.414,44.414,0,0,1,20.152,6.8A60.033,60.033,0,0,0,472,256a8,8,0,0,0,0-16,44.471,44.471,0,0,1-25.168-7,70.193,70.193,0,0,0-15.281-6.711l47.6-94.7A8,8,0,0,0,472,120H432V8a8,8,0,0,0-8-8H136a8,8,0,0,0-8,8V144H112V24a8,8,0,0,0-8-8H40a8,8,0,0,0-7.9,6.785L17.137,120H8a8,8,0,0,0-8,8v72a7.973,7.973,0,0,0,1.145,4.121l20.457,34.1A46.277,46.277,0,0,1,8,240a8,8,0,0,0-8,8ZM376,120a8.006,8.006,0,0,0-4.8,1.6L341.336,144H336V112h80v8ZM240,144V112h80v32ZM144,64h80V96H144ZM416,96H336V64h80Zm-96,0H240V64h80Zm96-48H336V16h80Zm-96,0H240V16h80ZM144,16h80V48H144Zm0,96h80v32H144ZM46.863,32H96V132.691L85.656,122.347A8,8,0,0,0,80,120H33.328ZM16,136H76.688l21.656,21.656A7.985,7.985,0,0,0,104,160H344a8,8,0,0,0,4.8-1.6L378.664,136h80.359l-44.246,88h-.8a60.173,60.173,0,0,0-32.887,8.992,48.618,48.618,0,0,1-50.4-.07,64.509,64.509,0,0,0-65.6.07,48.618,48.618,0,0,1-50.4-.07A59.949,59.949,0,0,0,181.922,224a59.418,59.418,0,0,0-32.8,8.992,44.828,44.828,0,0,1-25.2,7.008A44.734,44.734,0,0,1,98.7,232.922,59.847,59.847,0,0,0,66,224c-1.953,0-3.77.082-5.512.2-.586.039-1.121.109-1.687.168-1.113.109-2.215.223-3.258.375-.613.1-1.191.2-1.781.313-.914.16-1.8.328-2.656.527-.57.129-1.129.273-1.672.414-.8.211-1.6.441-2.4.684-.488.148-.984.3-1.457.461-.8.273-1.543.563-2.277.855-.387.152-.8.3-1.16.457-.891.375-1.746.762-2.578,1.16l-.543.25c-1,.488-1.977.984-2.91,1.48L16,197.785Zm0,0" fill="#ef4937"/>
    <path id="Path_6" data-name="Path 6" d="M72,40H64a8,8,0,0,0,0,16h8a8,8,0,0,0,0-16Zm0,0" fill="#ef4937"/>
    <path id="Path_7" data-name="Path 7" d="M72,192h8a8,8,0,0,0,0-16H72a8,8,0,0,0,0,16Zm0,0" fill="#ef4937"/>
    <path id="Path_8" data-name="Path 8" d="M112,192h8a8,8,0,0,0,0-16h-8a8,8,0,0,0,0,16Zm0,0" fill="#ef4937"/>
    <path id="Path_9" data-name="Path 9" d="M152,192h8a8,8,0,0,0,0-16h-8a8,8,0,0,0,0,16Zm0,0" fill="#ef4937"/>
    <path id="Path_10" data-name="Path 10" d="M192,192h8a8,8,0,0,0,0-16h-8a8,8,0,0,0,0,16Zm0,0" fill="#ef4937"/>
    <path id="Path_11" data-name="Path 11" d="M232,192h8a8,8,0,0,0,0-16h-8a8,8,0,0,0,0,16Zm0,0" fill="#ef4937"/>
    <path id="Path_12" data-name="Path 12" d="M272,192h8a8,8,0,0,0,0-16h-8a8,8,0,0,0,0,16Zm0,0" fill="#ef4937"/>
    <path id="Path_13" data-name="Path 13" d="M312,192h8a8,8,0,0,0,0-16h-8a8,8,0,0,0,0,16Zm0,0" fill="#ef4937"/>
    <path id="Path_14" data-name="Path 14" d="M352,192h8a8,8,0,0,0,0-16h-8a8,8,0,0,0,0,16Zm0,0" fill="#ef4937"/>
    <path id="Path_15" data-name="Path 15" d="M392,192h8a8,8,0,0,0,0-16h-8a8,8,0,0,0,0,16Zm0,0" fill="#ef4937"/>
  </g>
</svg>
