<svg height="498pt" viewBox="0 -7 498.00988 498" width="498pt" xmlns="http://www.w3.org/2000/svg"><path d="m491.359375 434.148438h-35.355469v-63.769532c0-.492187.167969-.992187.167969-1.5 0-.511718-.167969-1.011718-.167969-1.5v-69.410156c0-.488281.167969-.992188.167969-1.5s-.167969-1.011719-.167969-1.5v-69.398438c0-.488281.167969-.992187.167969-1.5 0-.511718-.167969-1.011718-.167969-1.5v-69.402343c0-.488281.167969-.988281.167969-1.5 0-.507813-.167969-1.011719-.167969-1.5v-69.398438c0-.488281.167969-.992187.167969-1.5 0-.507812-.167969-1.019531-.167969-1.507812v-69.398438c0-1.992187-.078125-4.160156-1.453125-5.878906-1.375-1.636719-3.429687-2.5507812-5.566406-2.4765625-.035156 0-.117187.1406255-.152344.1406255h-90.121093c-.039063 0-.078126-.1406255-.117188-.1406255-2.089844-.0429687-4.078125.9023435-5.367188 2.5507815-1.375 1.71875-2.222656 3.8125-1.222656 5.804687v49.785157h-307.617187c-3.867188 0-7.382813 3-7.382813 6.867187v41.664063c.140625 4.03125 3.351563 7.28125 7.382813 7.46875h64.554687l-61.550781 94h-14.523437c-3.867188 0-6.863282 3.578124-6.863282 7.441406v107.011718c-.011718 1.796876.71875 3.515626 2.015625 4.757813 1.300781 1.238281 3.054688 1.886719 4.847657 1.789063h177.09375c3.863281 0 7.042968-2.679688 7.042968-6.546876v-107.011718c0-3.863282-3.179687-7.441406-7.042968-7.441406h-18.640626l-57.832031-94h218.515625v36.011718c0 .488282-.164062.992188-.164062 1.5 0 .511719.164062 1.011719.164062 1.5v69.402344c0 .488281-.164062.988281-.164062 1.5 0 .507812.164062 1.011719.164062 1.5v69.398438c0 .488281-.164062.992187-.164062 1.5 0 .507812.164062 1.011718.164062 1.5v69.40625c0 .488281-.164062.992187-.164062 1.5 0 .511718.164062 1.011718.164062 1.5v63.78125h-345.355468c-3.867188 0-6.64453175 3.269531-6.64453175 7.136718v36.148438c-.07031245 1.789062.60546875 3.527344 1.86718775 4.800781 1.257812 1.273437 2.988281 1.964844 4.777344 1.914063h484.710937c1.792969.050781 3.523437-.640626 4.78125-1.914063s1.933594-3.011719 1.863281-4.800781v-36.148438c0-3.867187-2.777344-7.136718-6.644531-7.136718zm-451.355469-212h27v93h-27zm122 0v93h-81v-93zm41 93h-27v-93h27zm-138.925781-107 57.152344-88.128907 53.695312 88.128907zm351.070313 196.933593 26.855468-21.5v43zm26.855468-311.117187v43l-26.855468-21.5zm-38.234375 12.53125-34.023437-27.234375 34.023437-27.234375 34.027344 27.234375zm38.234375 204.675781v43l-26.855468-21.5zm-38.234375 12.535156-34.023437-27.238281 34.023437-27.238281 34.027344 27.238281zm11.375-63.441406 26.859375-21.5v43zm-11.375-8.964844-34.023437-27.238281 34.023437-27.234375 34.027344 27.234375zm11.378907-63.4375 26.855468-21.5v43zm22.648437-36.199219-34.027344 27.234376-34.023437-27.234376 34.023437-27.234374zm-44.933594 36.199219-26.859375 21.5v-43zm0 72.398438-26.859375 21.503906v-43zm0 72.40625-26.859375 21.503906v-43zm10.90625 8.96875 34.027344 27.238281-34.027344 27.234375-34.023437-27.234375zm38.234375-277.074219-26.855468-21.5 26.855468-21.5zm-38.234375-30.179688-25.277343-20.234374h50.558593zm-10.90625 8.679688-26.859375 21.5v-43zm-26.859375 50.902344 26.859375 21.5-26.859375 21.496094zm26.859375 311.117187-26.859375 21.5v-43zm10.90625 8.828125 25.28125 20.238282h-50.558593zm-352.765625-313.761718v-28h301v5.613281c0 .488281-.164062.992187-.164062 1.5 0 .507812.164062 1.011719.164062 1.5v19.386719zm433 370h-470v-22h470zm0 0"/></svg>