<svg xmlns="http://www.w3.org/2000/svg" width="407" height="324.014" viewBox="0 0 407 324.014">
  <path id="crane" d="M401.564,290.553H372.67V247.875c0-.329.137-.664.137-1s-.137-.677-.137-1V199.415c0-.327.137-.664.137-1s-.137-.677-.137-1V150.963c0-.327.137-.664.137-1s-.137-.677-.137-1V102.508c0-.327.137-.661.137-1s-.137-.677-.137-1V54.056c0-.327.137-.664.137-1s-.137-.682-.137-1.009V5.6a5.2,5.2,0,0,0-1.188-3.934A6.3,6.3,0,0,0,366.933.006c-.029,0-.1.094-.124.094H293.157c-.032,0-.064-.094-.1-.094a5.952,5.952,0,0,0-4.386,1.707c-1.124,1.15-1.816,2.551-1,3.885V38.917H36.275c-3.16,0-6.034,2.008-6.034,4.6V71.4c.115,2.7,2.739,4.873,6.034,5H89.032L38.73,139.3H26.861c-3.16,0-5.609,2.395-5.609,4.98V215.9a4.03,4.03,0,0,0,1.647,3.184,6.052,6.052,0,0,0,3.962,1.2h144.73c3.157,0,5.756-1.793,5.756-4.381V144.284c0-2.585-2.6-4.98-5.756-4.98H156.357L109.094,76.394H287.676v24.1c0,.327-.134.664-.134,1s.134.677.134,1V148.95c0,.327-.134.661-.134,1s.134.677.134,1V197.4c0,.327-.134.664-.134,1s.134.677.134,1v46.45c0,.327-.134.664-.134,1s.134.677.134,1v42.685H5.434c-3.16,0-5.43,2.188-5.43,4.776v24.192a3.936,3.936,0,0,0,1.526,3.213,5.938,5.938,0,0,0,3.9,1.281H401.565a5.941,5.941,0,0,0,3.907-1.281A3.942,3.942,0,0,0,407,319.521V295.329c0-2.588-2.27-4.776-5.43-4.776ZM32.693,148.673H54.759v62.24H32.693Zm99.7,0v62.24H66.2v-62.24Zm33.507,62.24H143.84v-62.24h22.066ZM52.368,139.3l46.708-58.98,43.883,58.98ZM339.28,271.1l21.948-14.389v28.778ZM361.228,62.887V91.664L339.28,77.276Zm-31.247,8.387L302.175,53.047,329.981,34.82,357.79,53.047Zm31.247,136.978v28.778L339.28,222.641Zm-31.247,8.389-27.806-18.229,27.806-18.229,27.809,18.229Zm9.3-42.458,21.951-14.389v28.778Zm-9.3-6-27.806-18.229,27.806-18.227,27.809,18.227Zm9.3-42.455,21.948-14.389v28.778ZM357.79,101.5l-27.809,18.226L302.175,101.5l27.806-18.227Zm-36.722,24.226-21.951,14.389V111.339Zm0,48.452-21.951,14.391V159.794Zm0,48.458-21.951,14.391V208.252Zm8.913,6,27.809,18.229L329.981,265.1l-27.806-18.227ZM361.228,43.21,339.28,28.821l21.948-14.389Zm-31.247-20.2L309.323,9.47h41.319Zm-8.913,5.809L299.117,43.21V14.432ZM299.117,62.887l21.951,14.389L299.117,91.662ZM321.068,271.1,299.117,285.49V256.712Zm8.913,5.908,20.661,13.544H309.323ZM41.682,67.025V48.286H287.675v3.757c0,.327-.134.664-.134,1s.134.677.134,1V67.025Zm353.87,247.621H11.444V299.923H395.552Zm0,0" transform="translate(0 -0.003)" fill="#ef4937"/>
</svg>
