<svg xmlns="http://www.w3.org/2000/svg" width="512.001" height="304.387" viewBox="0 0 512.001 304.387">
  <g id="delivery-truck" transform="translate(0 -103.806)">
    <g id="Group_3" data-name="Group 3">
      <g id="Group_2" data-name="Group 2">
        <path id="Path_16" data-name="Path 16" d="M506.922,249.331l-29.541-17.153L460.5,160.069a42.05,42.05,0,0,0-41.107-32.6H334.506V114a10.2,10.2,0,0,0-10.2-10.2H10.2A10.2,10.2,0,0,0,0,114V357.116a10.2,10.2,0,0,0,10.2,10.2H42.978a51.081,51.081,0,0,0,100.1,0H349.557a51.081,51.081,0,0,0,100.1,0H501.8a10.2,10.2,0,0,0,10.2-10.2V258.151A10.2,10.2,0,0,0,506.922,249.331ZM93.029,387.8a30.678,30.678,0,1,1,30.678-30.678A30.713,30.713,0,0,1,93.029,387.8Zm221.08-77.452H222.115a10.2,10.2,0,0,0,0,20.4h91.994v16.176H143.081a51.081,51.081,0,0,0-100.1,0H20.4v-52.75H314.109v16.176Zm0-172.672v136.1H20.4V124.205H314.109Zm79.562,10.2H419.4a21.727,21.727,0,0,1,21.244,16.846l14.949,63.872h-61.92V147.872ZM399.608,387.8a30.713,30.713,0,0,1-30.6-28.635,10.283,10.283,0,0,0,0-4.086,30.674,30.674,0,1,1,30.6,32.721ZM491.6,298.512H472.2v-10.8h19.4Zm0-31.2H462a10.2,10.2,0,0,0-10.2,10.2v31.2a10.2,10.2,0,0,0,10.2,10.2h29.6v28.008H449.66a51.081,51.081,0,0,0-100.1,0h-15.05V147.871h38.766v90.918a10.2,10.2,0,0,0,10.2,10.2h82.235L491.6,264.025v3.292Z" fill="#ef4937"/>
      </g>
    </g>
    <g id="Group_5" data-name="Group 5">
      <g id="Group_4" data-name="Group 4">
        <path id="Path_17" data-name="Path 17" d="M187.693,310.344h-8.606a10.2,10.2,0,1,0,0,20.4h8.606a10.2,10.2,0,0,0,0-20.4Z" fill="#ef4937"/>
      </g>
    </g>
  </g>
</svg>
