<svg xmlns="http://www.w3.org/2000/svg" width="398.971" height="324.013" viewBox="0 0 398.971 324.013">
  <g id="shop" transform="translate(0 -48.096)">
    <g id="Group_7" data-name="Group 7" transform="translate(0 48.096)">
      <g id="Group_6" data-name="Group 6">
        <path id="Path_18" data-name="Path 18" d="M380.634,360.421h-6.648V187.038a54.245,54.245,0,0,0,24.986-45.646,5.848,5.848,0,0,0-.77-2.9L351.826,57.335A18.38,18.38,0,0,0,335.9,48.1H63.066a18.378,18.378,0,0,0-15.921,9.239L.77,138.492a5.851,5.851,0,0,0-.77,2.9,54.245,54.245,0,0,0,24.986,45.646V360.421H18.337a5.844,5.844,0,0,0,0,11.689h362.3a5.844,5.844,0,0,0,0-11.689ZM12.091,147.236H30.828a5.844,5.844,0,1,0,0-11.689H15.915L57.294,63.135a6.663,6.663,0,0,1,5.773-3.35H335.9a6.663,6.663,0,0,1,5.773,3.35l41.378,72.412H368.139a5.844,5.844,0,1,0,0,11.689h18.739a42.561,42.561,0,0,1-84.318,0h40.6a5.844,5.844,0,0,0,0-11.689H55.818a5.844,5.844,0,1,0,0,11.689H96.409a42.561,42.561,0,0,1-84.318,0Zm277.959,0a42.556,42.556,0,0,1-84.309,0Zm-96.821,0a42.556,42.556,0,0,1-84.309,0ZM331.063,360.422H267.794V340.877h63.269Zm0-31.233H267.794v-107h63.269ZM362.3,360.422H342.753V216.349a5.844,5.844,0,0,0-5.844-5.844H261.951a5.844,5.844,0,0,0-5.844,5.844V360.421H36.674V192.706a54.2,54.2,0,0,0,65.991-26.832,54.244,54.244,0,0,0,96.821,0,54.244,54.244,0,0,0,96.821,0A54.2,54.2,0,0,0,362.3,192.707Z" transform="translate(0 -48.096)" fill="#ef4937"/>
      </g>
    </g>
    <g id="Group_9" data-name="Group 9" transform="translate(56.218 210.505)">
      <g id="Group_8" data-name="Group 8">
        <path id="Path_19" data-name="Path 19" d="M246.645,256.516H77.989a5.844,5.844,0,0,0-5.844,5.844V381.044a5.844,5.844,0,0,0,5.844,5.844H246.645a5.844,5.844,0,0,0,5.844-5.844V262.36A5.843,5.843,0,0,0,246.645,256.516ZM240.8,375.2H83.834v-107H240.8Z" transform="translate(-72.145 -256.516)" fill="#ef4937"/>
      </g>
    </g>
  </g>
</svg>
