<svg xmlns="http://www.w3.org/2000/svg" width="288.006" height="288.013" viewBox="0 0 288.006 288.013">
  <g id="telephone" transform="translate(-1614.006 -6)">
    <g id="Group_1" data-name="Group 1" transform="translate(1614.006 6)">
      <path id="Path_1" data-name="Path 1" d="M218.969,209.012c-9.409-9.29-21.156-9.29-30.506,0-7.132,7.072-14.264,14.144-21.276,21.336-1.918,1.978-3.536,2.4-5.873,1.079-4.615-2.517-9.529-4.555-13.964-7.312-20.677-13.005-38-29.727-53.34-48.546-7.611-9.35-14.384-19.358-19.119-30.626-.959-2.277-.779-3.776,1.079-5.634,7.132-6.892,14.084-13.964,21.1-21.036,9.769-9.829,9.769-21.336-.06-31.225C91.432,81.415,85.859,75.9,80.285,70.268,74.531,64.514,68.838,58.7,63.024,53.007c-9.409-9.17-21.156-9.17-30.506.06-7.192,7.072-14.084,14.324-21.4,21.276A34.731,34.731,0,0,0,.214,97.777C-.924,112.7,2.732,126.785,7.886,140.509c10.548,28.408,26.61,53.64,46.088,76.774a285.207,285.207,0,0,0,94.454,73.9c16.541,8.031,33.682,14.2,52.321,15.223,12.826.719,23.973-2.517,32.9-12.526,6.113-6.832,13.005-13.065,19.478-19.6,9.589-9.709,9.649-21.456.12-31.045Q236.17,226.063,218.969,209.012Z" transform="translate(-0.006 -18.486)" fill="#ef4937"/>
      <path id="Path_2" data-name="Path 2" d="M302.821,181.225l22.115-3.776A99.269,99.269,0,0,0,240.971,96l-3.117,22.235a76.719,76.719,0,0,1,64.967,62.989Z" transform="translate(-95.305 -38.464)" fill="#ef4937"/>
      <path id="Path_3" data-name="Path 3" d="M339.366,46.628A163.069,163.069,0,0,0,245.871,0l-3.117,22.235A142.291,142.291,0,0,1,363.159,138.924l22.115-3.776A164.264,164.264,0,0,0,339.366,46.628Z" transform="translate(-97.268)" fill="#ef4937"/>
    </g>
  </g>
</svg>
